<?xml version="1.0" encoding="UTF-8" standalone="no"?>
<!-- Created with Inkscape (http://www.inkscape.org/) -->

<svg
   width="28"
   height="28"
   viewBox="0 0 7.4083339 7.408334"
   version="1.1"
   id="svg1"
   xml:space="preserve"
   inkscape:version="1.4 (86a8ad7, 2024-10-11)"
   sodipodi:docname="protrack_vertg_n.svg"
   xmlns:inkscape="http://www.inkscape.org/namespaces/inkscape"
   xmlns:sodipodi="http://sodipodi.sourceforge.net/DTD/sodipodi-0.dtd"
   xmlns="http://www.w3.org/2000/svg"
   xmlns:svg="http://www.w3.org/2000/svg"><sodipodi:namedview
     id="namedview1"
     pagecolor="#505050"
     bordercolor="#ffffff"
     borderopacity="1"
     inkscape:showpageshadow="0"
     inkscape:pageopacity="0"
     inkscape:pagecheckerboard="1"
     inkscape:deskcolor="#505050"
     inkscape:document-units="mm"
     inkscape:zoom="32.555332"
     inkscape:cx="18.983066"
     inkscape:cy="15.020581"
     inkscape:window-width="3440"
     inkscape:window-height="1355"
     inkscape:window-x="-9"
     inkscape:window-y="-9"
     inkscape:window-maximized="1"
     inkscape:current-layer="layer1" /><defs
     id="defs1" /><g
     inkscape:label="Layer 1"
     inkscape:groupmode="layer"
     id="layer1"><path
       id="Path_131130-8"
       data-name="Path 131130"
       d="m 2.1113969,5.2650373 c 0,-0.2586288 0.2098992,-0.4685304 0.4685315,-0.4685304 0.1236885,0 0.243637,0.048727 0.3317177,0.1368109 l 0.7927552,0.7927534 0.792748,-0.7927534 c 0.1836698,-0.1817898 0.4797799,-0.1817898 0.6634426,0 0.1817927,0.1836639 0.1817927,0.477901 0,0.6615648 L 4.036119,6.7193555 c -0.1836627,0.1836639 -0.4797727,0.1836639 -0.6634425,0 0,0 0,0 0,0 L 2.2482036,5.5948826 C 2.1601228,5.506799 2.1113969,5.3887293 2.1113969,5.2631631 Z"
       style="fill:#ffffff;stroke-width:0.187412;opacity:0.5"
       inkscape:label="down" /><path
       id="Path_131130-5"
       data-name="Path 131130"
       d="m 2.1113969,2.1432962 c 0,0.2586287 0.2098992,0.4685303 0.4685315,0.4685303 0.1236885,0 0.243637,-0.048727 0.3317177,-0.1368108 l 0.7927552,-0.7927534 0.792748,0.7927534 c 0.1836698,0.1817897 0.4797799,0.1817897 0.6634426,0 0.1817927,-0.183664 0.1817927,-0.477901 0,-0.6615649 L 4.036119,0.68897789 c -0.1836627,-0.183664 -0.4797727,-0.183664 -0.6634425,0 0,0 0,0 0,0 L 2.2482036,1.8134508 C 2.1601226,1.9015348 2.1113969,2.0196042 2.1113969,2.1451703 Z"
       style="fill:#ffffff;stroke-width:0.187412;opacity:0.5"
       inkscape:label="up" /><circle
       style="fill:#ffffff;stroke-width:8.46667;stroke-linecap:round;stroke-linejoin:round;stroke-dasharray:8.46667, 12.7"
       id="path1"
       cx="3.7041667"
       cy="3.7041667"
       r="0.60592622"
       inkscape:label="middledot" /><path
       id="Path_131130-8-8"
       data-name="Path 131130"
       d="m 5.2650373,5.2969364 c -0.2586288,0 -0.4685304,-0.2098992 -0.4685304,-0.4685315 0,-0.1236885 0.048727,-0.243637 0.1368109,-0.3317177 L 5.7260712,3.703932 4.9333178,2.911184 c -0.1817898,-0.1836698 -0.1817898,-0.4797799 0,-0.6634426 0.1836639,-0.1817927 0.477901,-0.1817927 0.6615648,0 l 1.1244729,1.1244729 c 0.1836639,0.1836627 0.1836639,0.4797727 0,0.6634425 0,0 0,0 0,0 L 5.5948826,5.1601297 C 5.506799,5.2482105 5.3887293,5.2969364 5.2631631,5.2969364 Z"
       style="fill:#ffffff;stroke-width:0.187412;opacity:0"
       inkscape:label="right" /><path
       id="Path_131130-5-8"
       data-name="Path 131130"
       d="m 2.1432962,5.2969364 c 0.2586287,0 0.4685303,-0.2098992 0.4685303,-0.4685315 0,-0.1236885 -0.048727,-0.243637 -0.1368108,-0.3317177 L 1.6822623,3.703932 2.4750157,2.911184 c 0.1817897,-0.1836698 0.1817897,-0.4797799 0,-0.6634426 -0.183664,-0.1817927 -0.477901,-0.1817927 -0.6615649,0 L 0.68897789,3.3722143 c -0.183664,0.1836627 -0.183664,0.4797727 0,0.6634425 0,0 0,0 0,0 L 1.8134508,5.1601297 c 0.088084,0.088081 0.2061534,0.1368067 0.3317195,0.1368067 z"
       style="fill:#ffffff;stroke-width:0.187412;opacity:0"
       inkscape:label="left" /></g></svg>
